<?xml version="1.0" encoding="UTF-8" standalone="no" ?>
<!DOCTYPE svg PUBLIC "-//W3C//DTD SVG 1.1//EN" "http://www.w3.org/Graphics/SVG/1.1/DTD/svg11.dtd">
<svg xmlns="http://www.w3.org/2000/svg" xmlns:xlink="http://www.w3.org/1999/xlink" version="1.1" width="60" height="60" viewBox="173.3132075471699 2.151800328302926 73.69639934339415 73.69639934339415" xml:space="preserve">
<desc>Created with Fabric.js 4.6.0</desc>
<defs>
</defs>
<g transform="matrix(0.87 0 0 0.87 210.16 39)" id="s_uypna9uV7gi4V4S0o_q"  >
<path style="stroke: none; stroke-width: 1; stroke-dasharray: none; stroke-linecap: butt; stroke-dashoffset: 0; stroke-linejoin: miter; stroke-miterlimit: 4; fill: rgb(0,0,0); fill-rule: nonzero; opacity: 1;" vector-effect="non-scaling-stroke"  transform=" translate(155, -257)" d="M -155 298.8 C -143.8 298.8 -133.3 294.5 -125.4 286.6 C -117.5 278.70000000000005 -113.2 268.20000000000005 -113.2 257 C -113.2 245.8 -117.5 235.3 -125.4 227.4 C -133.3 219.5 -143.8 215.20000000000002 -155 215.20000000000002 C -166.2 215.20000000000002 -176.7 219.50000000000003 -184.6 227.4 C -192.5 235.3 -196.79999999999998 245.8 -196.79999999999998 257 C -196.79999999999998 268.2 -192.49999999999997 278.7 -184.6 286.6 C -176.7 294.5 -166.2 298.8 -155 298.8 z M -152.6 291.7 C -153.4 291.8 -154.2 291.8 -155 291.8 C -156.1 291.8 -157.2 291.7 -158.3 291.6 C -161.9 286 -164.60000000000002 280 -166.20000000000002 273.70000000000005 L -148.50000000000003 273.70000000000005 C -147.90000000000003 275.20000000000005 -146.80000000000004 276.6 -145.50000000000003 277.50000000000006 C -147.20000000000002 282.50000000000006 -149.60000000000002 287.20000000000005 -152.60000000000002 291.70000000000005 z M -143.1 289.7 C -141.2 286.2 -139.7 282.7 -138.5 279 C -135.6 278.4 -133.3 276.4 -132.2 273.7 L -124.49999999999999 273.7 C -128.5 281 -135.2 286.7 -143.1 289.7 z M -120.3 257 C -120.3 260.3 -120.8 263.5 -121.6 266.6 L -132.4 266.6 C -133 265.3 -134 264.1 -135.20000000000002 263.20000000000005 C -135.00000000000003 261.00000000000006 -134.9 258.80000000000007 -134.9 256.6 C -134.9 253.50000000000003 -135.1 250.40000000000003 -135.5 247.40000000000003 L -121.7 247.40000000000003 C -120.7 250.40000000000003 -120.3 253.70000000000005 -120.3 257.00000000000006 z M -124.5 240.3 L -136.7 240.3 C -138 234.8 -139.89999999999998 229.60000000000002 -142.5 224.60000000000002 C -134.9 227.50000000000003 -128.5 233.20000000000002 -124.5 240.3 z M -141.9 256.6 C -141.9 258.3 -142 260 -142.1 261.70000000000005 C -144.9 262.30000000000007 -147.2 264.1 -148.29999999999998 266.6 L -167.6 266.6 C -168 263.6 -168.29999999999998 260.5 -168.29999999999998 257.5 C -168.29999999999998 255.6 -168.2 253.7 -167.99999999999997 251.8 C -165.39999999999998 251.3 -163.29999999999998 249.60000000000002 -161.99999999999997 247.4 L -142.49999999999997 247.4 C -142.09999999999997 250.4 -141.89999999999998 253.5 -141.89999999999998 256.6 z M -157.6 222.40000000000003 C -156.7 222.30000000000004 -155.79999999999998 222.30000000000004 -155 222.30000000000004 C -154 222.30000000000004 -153 222.30000000000004 -152 222.40000000000003 C -148.4 228.00000000000003 -145.7 234.00000000000003 -144.1 240.30000000000004 L -161.5 240.30000000000004 C -162.1 238.60000000000005 -163.2 237.10000000000005 -164.6 236.00000000000003 C -162.79999999999998 231.20000000000002 -160.5 226.70000000000002 -157.6 222.40000000000003 z M -167.1 224.40000000000003 C -168.79999999999998 227.60000000000002 -170.29999999999998 231.00000000000003 -171.5 234.40000000000003 C -174.6 235.00000000000003 -177.1 237.30000000000004 -178.1 240.20000000000005 L -185.4 240.20000000000005 C -181.5 233.10000000000005 -175 227.40000000000003 -167.1 224.40000000000003 z M -189.7 257.00000000000006 C -189.7 253.70000000000005 -189.2 250.40000000000006 -188.29999999999998 247.40000000000006 L -177.39999999999998 247.40000000000006 C -176.79999999999998 248.50000000000006 -175.89999999999998 249.50000000000006 -174.89999999999998 250.30000000000007 C -175.09999999999997 252.70000000000007 -175.29999999999998 255.10000000000008 -175.29999999999998 257.50000000000006 C -175.29999999999998 260.6000000000001 -175.1 263.6000000000001 -174.7 266.6000000000001 L -188.29999999999998 266.6000000000001 C -189.29999999999998 263.50000000000006 -189.7 260.30000000000007 -189.7 257.00000000000006 z M -173.5 273.6000000000001 C -172.2 279.00000000000006 -170.3 284.30000000000007 -167.7 289.30000000000007 C -175.29999999999998 286.30000000000007 -181.6 280.70000000000005 -185.5 273.6000000000001 L -173.5 273.6000000000001 z" stroke-linecap="round" />
</g>
</svg>